<svg id="visual" viewBox="0 0 4096 400" width="4096" height="400" xmlns="http://www.w3.org/2000/svg" xmlns:xlink="http://www.w3.org/1999/xlink" version="1.1"><path d="M0 299L97.5 287.8C195 276.7 390 254.3 585 246.7C780 239 975 246 1170 257.8C1365 269.7 1560 286.3 1755.2 278.7C1950.3 271 2145.7 239 2340.8 227.5C2536 216 2731 225 2926 237.2C3121 249.3 3316 264.7 3511 261.7C3706 258.7 3901 237.3 3998.5 226.7L4096 216L4096 0L3998.5 0C3901 0 3706 0 3511 0C3316 0 3121 0 2926 0C2731 0 2536 0 2340.8 0C2145.7 0 1950.3 0 1755.2 0C1560 0 1365 0 1170 0C975 0 780 0 585 0C390 0 195 0 97.5 0L0 0Z" fill="#9b9dbf"></path><path d="M0 231L97.5 223.8C195 216.7 390 202.3 585 190.2C780 178 975 168 1170 175.5C1365 183 1560 208 1755.2 211.8C1950.3 215.7 2145.7 198.3 2340.8 199.8C2536 201.3 2731 221.7 2926 220.7C3121 219.7 3316 197.3 3511 187.2C3706 177 3901 179 3998.5 180L4096 181L4096 0L3998.5 0C3901 0 3706 0 3511 0C3316 0 3121 0 2926 0C2731 0 2536 0 2340.8 0C2145.7 0 1950.3 0 1755.2 0C1560 0 1365 0 1170 0C975 0 780 0 585 0C390 0 195 0 97.5 0L0 0Z" fill="#7e82ac"></path><path d="M0 106L97.5 114C195 122 390 138 585 148.5C780 159 975 164 1170 166.7C1365 169.3 1560 169.7 1755.2 168.7C1950.3 167.7 2145.7 165.3 2340.8 158.2C2536 151 2731 139 2926 140.7C3121 142.3 3316 157.7 3511 153.7C3706 149.7 3901 126.3 3998.5 114.7L4096 103L4096 0L3998.5 0C3901 0 3706 0 3511 0C3316 0 3121 0 2926 0C2731 0 2536 0 2340.8 0C2145.7 0 1950.3 0 1755.2 0C1560 0 1365 0 1170 0C975 0 780 0 585 0C390 0 195 0 97.5 0L0 0Z" fill="#666a94"></path><path d="M0 50L97.5 50C195 50 390 50 585 50C780 50 975 50 1170 58.2C1365 66.3 1560 82.7 1755.2 89.3C1950.3 96 2145.7 93 2340.8 89.8C2536 86.7 2731 83.3 2926 76.7C3121 70 3316 60 3511 59.8C3706 59.7 3901 69.3 3998.5 74.2L4096 79L4096 0L3998.5 0C3901 0 3706 0 3511 0C3316 0 3121 0 2926 0C2731 0 2536 0 2340.8 0C2145.7 0 1950.3 0 1755.2 0C1560 0 1365 0 1170 0C975 0 780 0 585 0C390 0 195 0 97.5 0L0 0Z" fill="#525578"></path></svg>