<svg id="visual" viewBox="0 0 4096 300" width="4096" height="300" xmlns="http://www.w3.org/2000/svg" xmlns:xlink="http://www.w3.org/1999/xlink" version="1.1"><path d="M0 224L97.5 215.7C195 207.3 390 190.7 585 185C780 179.3 975 184.7 1170 193.5C1365 202.3 1560 214.7 1755.2 208.8C1950.3 203 2145.7 179 2340.8 170.5C2536 162 2731 169 2926 178.2C3121 187.3 3316 198.7 3511 196.3C3706 194 3901 178 3998.5 170L4096 162L4096 0L3998.5 0C3901 0 3706 0 3511 0C3316 0 3121 0 2926 0C2731 0 2536 0 2340.8 0C2145.7 0 1950.3 0 1755.2 0C1560 0 1365 0 1170 0C975 0 780 0 585 0C390 0 195 0 97.5 0L0 0Z" fill="#c0c0c0"></path><path d="M0 173L97.5 167.7C195 162.3 390 151.7 585 142.7C780 133.7 975 126.3 1170 132C1365 137.7 1560 156.3 1755.2 159C1950.3 161.7 2145.7 148.3 2340.8 149.3C2536 150.3 2731 165.7 2926 165C3121 164.3 3316 147.7 3511 140.2C3706 132.7 3901 134.3 3998.5 135.2L4096 136L4096 0L3998.5 0C3901 0 3706 0 3511 0C3316 0 3121 0 2926 0C2731 0 2536 0 2340.8 0C2145.7 0 1950.3 0 1755.2 0C1560 0 1365 0 1170 0C975 0 780 0 585 0C390 0 195 0 97.5 0L0 0Z" fill="#aeaeae"></path><path d="M0 80L97.5 85.8C195 91.7 390 103.3 585 111C780 118.7 975 122.3 1170 124.3C1365 126.3 1560 126.7 1755.2 126C1950.3 125.3 2145.7 123.7 2340.8 118.3C2536 113 2731 104 2926 105.2C3121 106.3 3316 117.7 3511 114.7C3706 111.7 3901 94.3 3998.5 85.7L4096 77L4096 0L3998.5 0C3901 0 3706 0 3511 0C3316 0 3121 0 2926 0C2731 0 2536 0 2340.8 0C2145.7 0 1950.3 0 1755.2 0C1560 0 1365 0 1170 0C975 0 780 0 585 0C390 0 195 0 97.5 0L0 0Z" fill="#969696"></path><path d="M0 37L97.5 37.2C195 37.3 390 37.7 585 37.8C780 38 975 38 1170 44C1365 50 1560 62 1755.2 66.8C1950.3 71.7 2145.7 69.3 2340.8 67C2536 64.7 2731 62.3 2926 57.5C3121 52.7 3316 45.3 3511 45.2C3706 45 3901 52 3998.5 55.5L4096 59L4096 0L3998.5 0C3901 0 3706 0 3511 0C3316 0 3121 0 2926 0C2731 0 2536 0 2340.8 0C2145.7 0 1950.3 0 1755.2 0C1560 0 1365 0 1170 0C975 0 780 0 585 0C390 0 195 0 97.5 0L0 0Z" fill="#797979"></path></svg>