<svg id="visual" viewBox="0 0 1920 300" width="1920" height="300" xmlns="http://www.w3.org/2000/svg" xmlns:xlink="http://www.w3.org/1999/xlink" version="1.1"><path d="M0 224L45.7 226.3C91.3 228.7 182.7 233.3 274.2 235.7C365.7 238 457.3 238 548.8 238.8C640.3 239.7 731.7 241.3 823 232.5C914.3 223.7 1005.7 204.3 1097 203C1188.3 201.7 1279.7 218.3 1371.2 219.5C1462.7 220.7 1554.3 206.3 1645.8 204.3C1737.3 202.3 1828.7 212.7 1874.3 217.8L1920 223L1920 0L1874.3 0C1828.7 0 1737.3 0 1645.8 0C1554.3 0 1462.7 0 1371.2 0C1279.7 0 1188.3 0 1097 0C1005.7 0 914.3 0 823 0C731.7 0 640.3 0 548.8 0C457.3 0 365.7 0 274.2 0C182.7 0 91.3 0 45.7 0L0 0Z" fill="#fafafa"></path><path d="M0 140L45.7 139.8C91.3 139.7 182.7 139.3 274.2 149.8C365.7 160.3 457.3 181.7 548.8 184.3C640.3 187 731.7 171 823 170C914.3 169 1005.7 183 1097 179.5C1188.3 176 1279.7 155 1371.2 143.7C1462.7 132.3 1554.3 130.7 1645.8 136.2C1737.3 141.7 1828.7 154.3 1874.3 160.7L1920 167L1920 0L1874.3 0C1828.7 0 1737.3 0 1645.8 0C1554.3 0 1462.7 0 1371.2 0C1279.7 0 1188.3 0 1097 0C1005.7 0 914.3 0 823 0C731.7 0 640.3 0 548.8 0C457.3 0 365.7 0 274.2 0C182.7 0 91.3 0 45.7 0L0 0Z" fill="#b5b5b5"></path><path d="M0 142L45.7 139.5C91.3 137 182.7 132 274.2 123.8C365.7 115.7 457.3 104.3 548.8 98.3C640.3 92.3 731.7 91.7 823 93.5C914.3 95.3 1005.7 99.7 1097 107.5C1188.3 115.3 1279.7 126.7 1371.2 134.7C1462.7 142.7 1554.3 147.3 1645.8 140.3C1737.3 133.3 1828.7 114.7 1874.3 105.3L1920 96L1920 0L1874.3 0C1828.7 0 1737.3 0 1645.8 0C1554.3 0 1462.7 0 1371.2 0C1279.7 0 1188.3 0 1097 0C1005.7 0 914.3 0 823 0C731.7 0 640.3 0 548.8 0C457.3 0 365.7 0 274.2 0C182.7 0 91.3 0 45.7 0L0 0Z" fill="#757575"></path><path d="M0 65L45.7 72C91.3 79 182.7 93 274.2 97.5C365.7 102 457.3 97 548.8 98.3C640.3 99.7 731.7 107.3 823 110.2C914.3 113 1005.7 111 1097 105.8C1188.3 100.7 1279.7 92.3 1371.2 83.8C1462.7 75.3 1554.3 66.7 1645.8 69C1737.3 71.3 1828.7 84.7 1874.3 91.3L1920 98L1920 0L1874.3 0C1828.7 0 1737.3 0 1645.8 0C1554.3 0 1462.7 0 1371.2 0C1279.7 0 1188.3 0 1097 0C1005.7 0 914.3 0 823 0C731.7 0 640.3 0 548.8 0C457.3 0 365.7 0 274.2 0C182.7 0 91.3 0 45.7 0L0 0Z" fill="#3a3a3a"></path><path d="M0 45L45.7 48.5C91.3 52 182.7 59 274.2 59.2C365.7 59.3 457.3 52.7 548.8 51.3C640.3 50 731.7 54 823 50.7C914.3 47.3 1005.7 36.7 1097 32.8C1188.3 29 1279.7 32 1371.2 33C1462.7 34 1554.3 33 1645.8 38C1737.3 43 1828.7 54 1874.3 59.5L1920 65L1920 0L1874.3 0C1828.7 0 1737.3 0 1645.8 0C1554.3 0 1462.7 0 1371.2 0C1279.7 0 1188.3 0 1097 0C1005.7 0 914.3 0 823 0C731.7 0 640.3 0 548.8 0C457.3 0 365.7 0 274.2 0C182.7 0 91.3 0 45.7 0L0 0Z" fill="#000000"></path></svg>